<?xml version="1.0" encoding="UTF-8"?>
<!DOCTYPE svg PUBLIC "-//W3C//DTD SVG 1.1//EN" "http://www.w3.org/Graphics/SVG/1.1/DTD/svg11.dtd">
<!-- Creator: CorelDRAW X7 -->
<svg xmlns="http://www.w3.org/2000/svg" xml:space="preserve" width="11.6929in" height="8.26772in" version="1.1" style="shape-rendering:geometricPrecision; text-rendering:geometricPrecision; image-rendering:optimizeQuality; fill-rule:evenodd; clip-rule:evenodd"
viewBox="0 0 11693 8268"
 xmlns:xlink="http://www.w3.org/1999/xlink">
 <defs>
  <style type="text/css">
   <![CDATA[
    .fil0 {fill:white;fill-rule:nonzero}
   ]]>
  </style>
 </defs>
 <g id="Layer_x0020_1">
  <metadata id="CorelCorpID_0Corel-Layer"/>
  <path class="fil0" d="M5906 4141l-33 14 30 73c1,3 -1,7 -4,9l-35 14c-4,2 -8,0 -9,-4l-30 -72 -32 14c-4,1 -8,-1 -10,-4 0,-1 0,-2 0,-3l0 0 0 -159c0,-4 3,-7 7,-7 2,0 4,1 5,2l113 112c3,3 3,7 0,10 -1,1 -1,1 -2,1l0 0zm-45 4l30 -13 -94 -92 0 132 29 -12c3,-2 8,0 9,3l30 72 22 -9 -30 -72c-2,-3 0,-8 4,-9z"/>
 </g>
</svg>
